<svg width="52" height="65" viewBox="0 0 52 65" fill="none" xmlns="http://www.w3.org/2000/svg">
<path d="M25.8682 0C40.1547 5.39776e-05 51.7363 9.47602 51.7363 21.165C51.7362 32.854 40.1547 42.33 25.8682 42.3301C23.7956 42.3301 21.7802 42.1286 19.8486 41.752C15.7012 45.9336 8.97486 47.656 5.87891 48C8.78608 46.6784 10.5565 41.7951 11.293 38.6514C4.47546 34.8401 5.56039e-05 28.4306 0 21.165C0 9.47605 11.5817 0.000105397 25.8682 0ZM12 17.1436C9.79086 17.1436 8 18.9344 8 21.1436C8.00026 23.3525 9.79102 25.1436 12 25.1436C14.2089 25.1435 15.9997 23.3524 16 21.1436C16 18.9345 14.2091 17.1436 12 17.1436ZM26.2852 17.1436C24.0762 17.1438 22.2852 18.9346 22.2852 21.1436C22.2854 23.3523 24.0764 25.1433 26.2852 25.1436C28.4941 25.1436 30.2849 23.3525 30.2852 21.1436C30.2852 18.9344 28.4943 17.1436 26.2852 17.1436ZM40.5713 17.1436C38.3622 17.1436 36.5713 18.9344 36.5713 21.1436C36.5716 23.3525 38.3623 25.1436 40.5713 25.1436C42.7803 25.1436 44.571 23.3525 44.5713 21.1436C44.5713 18.9344 42.7804 17.1436 40.5713 17.1436Z" fill="#8EA8BA" fill-opacity="0.2"/>
<path d="M20.6895 58.2539C20.6895 59.4668 21.1904 60.7148 22.3154 61.3037L21.7617 62.0244C21.019 61.6377 20.5225 60.9434 20.2412 60.1084C19.96 61.0049 19.459 61.7739 18.7119 62.2002L18.1494 61.4795C19.2568 60.8291 19.7666 59.5107 19.7666 58.2539V58.0342H18.3779V57.2344H19.7666V56.1182H20.6895V57.2344H22.0605V58.0342H20.6895V58.2539ZM25.1543 55.8369V63.7822H24.2227V59.7568H23.4053V63.3955H22.4824V55.9775H23.4053V58.9482H24.2227V55.8369H25.1543ZM30.3223 56.4082V57.1816H27.4746V57.9375H30.0938V58.7021H27.4746V59.4668C28.96 59.4756 29.8652 59.4536 30.9111 59.2734L31.0078 60.0469C29.8652 60.2314 28.8721 60.2666 27.1582 60.2578H26.4814V56.4082H30.3223ZM32.6602 55.8457V60.6885H31.6758V55.8457H32.6602ZM29.9795 60.8027C31.6494 60.8027 32.6953 61.3477 32.6953 62.2881C32.6953 63.2285 31.6494 63.7734 29.9795 63.7734C28.2832 63.7734 27.2549 63.2285 27.2637 62.2881C27.2549 61.3477 28.2832 60.8027 29.9795 60.8027ZM29.9795 61.5586C28.8545 61.5586 28.2305 61.8223 28.2393 62.2881C28.2305 62.7627 28.8545 63.0176 29.9795 63.0176C31.0781 63.0176 31.7197 62.7627 31.7197 62.2881C31.7197 61.8223 31.0781 61.5586 29.9795 61.5586Z" fill="#8EA8BA"/>
</svg>
