<svg width="48" height="58" viewBox="0 0 48 58" fill="none" xmlns="http://www.w3.org/2000/svg">
<path d="M37.2647 28.0671C36.7769 28.0671 36.3835 27.6657 36.3835 27.177C36.3835 26.6882 36.7769 26.2868 37.2647 26.2868H46.8041V26.1597C46.8041 25.0112 46.7333 23.8906 46.5956 22.7978C45.5453 15.0489 40.6792 8.53179 33.9721 5.22955C32.3632 4.47849 30.6756 3.92216 28.9054 3.56849V10.7611C28.9054 11.0631 28.7284 11.3214 28.4806 11.4486C28.3783 11.5002 28.2642 11.5281 28.1462 11.5281C27.8748 11.5281 27.6427 11.389 27.505 11.1744C27.4303 11.0552 27.387 10.9161 27.387 10.7611V3.38569C27.387 3.36185 27.383 3.33801 27.383 3.31417C27.3791 3.26251 27.3791 3.21085 27.3752 3.15919C27.2572 1.39481 25.8095 0 24.0354 0H23.9567C22.1826 0 20.735 1.39481 20.6169 3.15919C20.613 3.20687 20.613 3.25456 20.613 3.30622C20.613 3.33006 20.613 3.35788 20.613 3.38569V10.7611C20.613 10.9121 20.5658 11.0512 20.495 11.1704C20.3573 11.385 20.1213 11.5281 19.8538 11.5281C19.7318 11.5281 19.6178 11.4963 19.5155 11.4446C19.2637 11.3214 19.0906 11.0631 19.0906 10.7611V3.55657C17.6312 3.84666 16.2268 4.27186 14.8815 4.83216C7.74561 7.97943 2.51762 14.6992 1.40829 22.7541C1.26668 23.8628 1.19194 24.9953 1.19194 26.1597C1.19194 26.2034 1.19587 26.2431 1.19587 26.2868H10.7353C11.2191 26.2868 11.6125 26.6842 11.6125 27.177C11.6125 27.4233 11.5142 27.6459 11.3568 27.8048C11.1955 27.9677 10.9753 28.0671 10.7353 28.0671H0V34H48V28.0671H37.2686H37.2647ZM30.4907 24.1171H26.5845V28.0671H21.4076V24.1171H17.4975V18.8876H21.4076V14.9416H26.5845V18.8876H30.4907V24.1171Z" fill="#8EA8BA" fill-opacity="0.2"/>
<path d="M37.2647 28.0671C36.7769 28.0671 36.3835 27.6657 36.3835 27.177C36.3835 26.6882 36.7769 26.2868 37.2647 26.2868H46.8041V26.1597C46.8041 25.0112 46.7333 23.8906 46.5956 22.7978C45.5453 15.0489 40.6792 8.53179 33.9721 5.22955C32.3632 4.47849 30.6756 3.92216 28.9054 3.56849V10.7611C28.9054 11.0631 28.7284 11.3214 28.4806 11.4486C28.3783 11.5002 28.2642 11.5281 28.1462 11.5281C27.8748 11.5281 27.6427 11.389 27.505 11.1744C27.4303 11.0552 27.387 10.9161 27.387 10.7611V3.38569C27.387 3.36185 27.383 3.33801 27.383 3.31417C27.3791 3.26251 27.3791 3.21085 27.3752 3.15919C27.2572 1.39481 25.8095 0 24.0354 0H23.9567C22.1826 0 20.735 1.39481 20.6169 3.15919C20.613 3.20687 20.613 3.25456 20.613 3.30622C20.613 3.33006 20.613 3.35788 20.613 3.38569V10.7611C20.613 10.9121 20.5658 11.0512 20.495 11.1704C20.3573 11.385 20.1213 11.5281 19.8538 11.5281C19.7318 11.5281 19.6178 11.4963 19.5155 11.4446C19.2637 11.3214 19.0906 11.0631 19.0906 10.7611V3.55657C17.6312 3.84666 16.2268 4.27186 14.8815 4.83216C7.74561 7.97943 2.51762 14.6992 1.40829 22.7541C1.26668 23.8628 1.19194 24.9953 1.19194 26.1597C1.19194 26.2034 1.19587 26.2431 1.19587 26.2868H10.7353C11.2191 26.2868 11.6125 26.6842 11.6125 27.177C11.6125 27.4233 11.5142 27.6459 11.3568 27.8048C11.1955 27.9677 10.9753 28.0671 10.7353 28.0671H0V34H48V28.0671H37.2686H37.2647ZM30.4907 24.1171H26.5845V28.0671H21.4076V24.1171H17.4975V18.8876H21.4076V14.9416H26.5845V18.8876H30.4907V24.1171Z" fill="#8EA8BA"/>
<path d="M9.70215 49.4258V49.9004C9.69336 50.4453 9.69336 51.2275 9.50879 52.2383L8.54199 52.1504C8.6958 51.3286 8.72656 50.7222 8.74414 50.2344H5.65039V49.4258H9.70215ZM7.69824 51.2363V52.8184C8.52002 52.7876 9.36377 52.7261 10.1328 52.6162L10.1855 53.3193C8.5332 53.6182 6.66113 53.6445 5.26367 53.6533L5.17578 52.8711C5.646 52.8667 6.17334 52.8623 6.73145 52.8535V51.2363H7.69824ZM11.6006 48.8369V51.3154H12.6289V52.1328H11.6006V54.7871H10.5986V48.8369H11.6006ZM11.8555 55.833V56.624H6.3623V54.2598H7.34668V55.833H11.8555ZM19.6602 48.8369V56.791H18.6934V48.8369H19.6602ZM17.2168 49.5312V52.5107H14.4834V54.1104C15.7358 54.1016 16.8169 54.04 18.0518 53.8291L18.1396 54.6289C16.7861 54.8662 15.5996 54.9102 14.1758 54.9102H13.4814V51.7373H16.2236V50.3223H13.4727V49.5312H17.2168ZM23.668 51.0957C23.668 52.3262 24.3975 53.7236 25.6543 54.3037L25.1094 55.0771C24.2129 54.6553 23.5493 53.8027 23.1934 52.8096C22.833 53.8994 22.1387 54.8311 21.2246 55.2705L20.6533 54.5059C21.9189 53.9082 22.6836 52.4141 22.6924 51.0957V50.4277H20.9609V49.6191H25.3291V50.4277H23.668V51.0957ZM27.043 48.8369V51.9307H28.2646V52.748H27.043V56.7822H26.0674V48.8369H27.043ZM35.2344 48.8369V56.7822H34.25V48.8369H35.2344ZM32.8613 49.6807C32.8613 52.0449 31.9473 54.0576 29.1611 55.376L28.6514 54.5938C30.73 53.605 31.6968 52.2603 31.8682 50.4541H29.0557V49.6807H32.8613ZM42.8018 50.9023V51.6934H37.3174V48.9775H38.293V50.9023H42.8018ZM43.6279 52.458V53.249H36.377V52.458H43.6279ZM39.9893 53.8203C41.7031 53.8291 42.7314 54.3564 42.7402 55.2881C42.7314 56.2197 41.7031 56.7471 39.9893 56.7471C38.2578 56.7471 37.2207 56.2197 37.2207 55.2881C37.2207 54.3564 38.2578 53.8291 39.9893 53.8203ZM39.9893 54.585C38.8291 54.5938 38.2051 54.8135 38.2139 55.2881C38.2051 55.7451 38.8291 56 39.9893 56C41.123 56 41.7559 55.7451 41.7646 55.2881C41.7559 54.8135 41.123 54.5938 39.9893 54.585Z" fill="#8EA8BA"/>
</svg>
