<svg width="42" height="66" viewBox="0 0 42 66" fill="none" xmlns="http://www.w3.org/2000/svg">
<path d="M23.375 21.7109H30.5V26.4609H23.375V33.5859H18.625V26.4609H11.5V21.7109H18.625V14.5859H23.375V21.7109Z" fill="#8EA8BA"/>
<path fill-rule="evenodd" clip-rule="evenodd" d="M3.49773 7.58959C2.39515 7.65583 1.5 7.89392 1.5 8.99849C1.5 10.8264 1.5 14.5293 1.5 21.8167C1.5 39.7637 16.199 46.5859 21 46.5859C25.801 46.5859 40.5 39.7637 40.5 21.8167C40.5 14.5293 40.5 10.8264 40.5 8.99849C40.5 7.89392 39.6049 7.65583 38.5023 7.58959C36.1967 7.45108 32.3133 7.05074 29.125 5.89363C26.2953 4.86666 24.013 3.24358 22.5961 2.06244C21.6963 1.31232 20.3037 1.31232 19.4039 2.06244C17.987 3.24358 15.7047 4.86666 12.875 5.89363C9.68667 7.05074 5.80326 7.45108 3.49773 7.58959Z" stroke="#8EA8BA" stroke-width="3" stroke-linecap="round" stroke-linejoin="round"/>
<path d="M12.0303 56.4229V58.752H13.1377V59.5605H12.0303V62.2324H11.0547V56.4229H12.0303ZM12.3467 63.4189V64.21H6.94141V61.626H7.91699V63.4189H12.3467ZM7.99609 56.9502C9.2002 56.9502 10.1318 57.7852 10.1406 58.9541C10.1318 60.1055 9.2002 60.9492 7.99609 60.9492C6.79199 60.9492 5.84277 60.1055 5.85156 58.9541C5.84277 57.7852 6.79199 56.9502 7.99609 56.9502ZM7.99609 57.8027C7.32812 57.8027 6.80078 58.251 6.80957 58.9541C6.80078 59.6396 7.32812 60.0879 7.99609 60.0879C8.66406 60.0879 9.18262 59.6396 9.18262 58.9541C9.18262 58.251 8.66406 57.8027 7.99609 57.8027ZM20.1953 56.4316V62.2324H19.2197V59.3232H17.8135V58.5322H19.2197V56.4316H20.1953ZM20.3975 63.4189V64.21H14.9834V61.7227H15.959V63.4189H20.3975ZM16.46 58.0137C16.46 58.9717 17.1016 59.9561 18.332 60.3604L17.8398 61.1426C16.9521 60.8394 16.3237 60.2373 15.9766 59.4814C15.625 60.3208 14.9614 60.9844 14.0254 61.3096L13.5244 60.5186C14.79 60.1055 15.4668 59.0596 15.4668 58.0049V57.7939H13.8145V57.0029H18.1035V57.7939H16.46V58.0137ZM27.9736 56.4229V61.0371H26.998V59.1123H25.627V58.3125H26.998V56.4229H27.9736ZM27.9736 61.3799V64.2715H22.6914V61.3799H27.9736ZM23.667 62.1533V63.4805H27.0156V62.1533H23.667ZM24.2383 57.7324C24.2383 58.6904 24.8799 59.666 26.1104 60.0879L25.6182 60.8613C24.7305 60.5581 24.1021 59.9561 23.7549 59.209C23.4033 60.0352 22.7397 60.6987 21.8037 61.0107L21.3027 60.2461C22.5684 59.8242 23.2451 58.7783 23.2451 57.7236V57.6621H21.5928V56.8711H25.8818V57.6621H24.2383V57.7324ZM33.2119 56.9062C33.2031 58.9541 31.8584 60.3867 29.5469 61.0371L29.1514 60.2725C30.9312 59.7847 31.9858 58.8574 32.166 57.6973H29.582V56.9062H33.2119ZM35.752 56.4316V60.9053H34.7764V59.1738H33.2471V58.374H34.7764V56.4316H35.752ZM35.752 61.2217V64.2627H30.5225V61.2217H35.752ZM31.4805 61.9951V63.4893H34.7852V61.9951H31.4805Z" fill="#8EA8BA"/>
</svg>
