<svg width="44" height="65" viewBox="0 0 44 65" fill="none" xmlns="http://www.w3.org/2000/svg">
<path d="M5.01031 0V7.49439H0V12.2103H5.01031V16.9262H0V21.6421H5.01031V26.3579H0V31.0738H5.01031V35.7897H0V40.5056H5.01031V48H44V0H5.01031ZM34.3481 37.9328H14.6622V31.2926H34.3481V37.9328ZM34.3481 27.3214H14.6622V20.6812H34.3481V27.3214ZM34.3481 16.71H14.6622V10.0698H34.3481V16.71Z" fill="#8EA8BA" fill-opacity="0.2"/>
<path d="M9.11133 57.2168C9.11133 58.1924 9.74414 59.1592 10.9922 59.5723L10.5 60.3281C9.6123 60.0337 8.97949 59.436 8.63672 58.6934C8.28076 59.5063 7.62158 60.1523 6.69434 60.4688L6.17578 59.7129C7.45898 59.291 8.12695 58.2627 8.12695 57.2168V57.1201H6.44824V56.3379H10.7637V57.1201H9.11133V57.2168ZM12.5303 55.8369V57.8232H13.6377V58.6406H12.5303V60.627H11.5547V55.8369H12.5303ZM12.5303 60.9961V63.7822H11.5547V61.7783H7.23926V60.9961H12.5303ZM16.248 56.1885C17.2764 56.1797 18.085 56.7729 18.2871 57.6475H19.7197V55.8369H20.6953V60.0996H19.7197V58.4385H18.2959C18.0981 59.3306 17.2808 59.9326 16.248 59.9326C15.0264 59.9326 14.1475 59.1504 14.1475 58.0518C14.1475 56.9707 15.0264 56.1797 16.248 56.1885ZM16.248 57.0059C15.5625 57.0059 15.0791 57.4102 15.0791 58.0518C15.0791 58.6846 15.5625 59.1064 16.248 59.1064C16.916 59.1064 17.3906 58.6846 17.3994 58.0518C17.3906 57.4102 16.916 57.0059 16.248 57.0059ZM16.4238 60.4688V61.3125H19.7197V60.4688H20.6953V63.6855H15.457V60.4688H16.4238ZM16.4238 62.8945H19.7197V62.0684H16.4238V62.8945ZM24.0703 56.0918C25.2744 56.0918 26.1709 56.8389 26.1797 57.8848C26.1709 58.9395 25.2744 59.6777 24.0703 59.6777C22.8574 59.6777 21.9609 58.9395 21.9609 57.8848C21.9609 56.8389 22.8574 56.0918 24.0703 56.0918ZM24.0703 56.9004C23.4023 56.9004 22.9102 57.2783 22.9102 57.8848C22.9102 58.5 23.4023 58.8867 24.0703 58.8867C24.7383 58.8867 25.2305 58.5 25.2305 57.8848C25.2305 57.2783 24.7383 56.9004 24.0703 56.9004ZM28.4385 55.8369V59.8535H27.4541V55.8369H28.4385ZM28.4385 60.1963V62.2705H24.1406V62.9121H28.6758V63.6855H23.1826V61.5498H27.4629V60.9609H23.165V60.1963H28.4385ZM32.5957 58.0957C32.5957 59.3965 33.3604 60.7676 34.6436 61.3037L34.1074 62.0771C33.167 61.6729 32.4814 60.8379 32.1211 59.8271C31.752 60.917 31.0576 61.8311 30.126 62.2705L29.5635 61.5059C30.8203 60.9258 31.6025 59.4492 31.6025 58.0957V57.4277H29.8535V56.6191H34.3359V57.4277H32.5957V58.0957ZM36.208 55.8369V63.7822H35.2236V55.8369H36.208Z" fill="#8EA8BA"/>
</svg>
