<svg width="60" height="60" viewBox="0 0 60 60" fill="none" xmlns="http://www.w3.org/2000/svg">
<path d="M28.7653 10.1467C28.723 9.15566 29.4933 8.31 30.4844 8.35146C33.5812 8.48102 36.6201 9.28653 39.3845 10.7201C42.6818 12.43 45.4736 14.9737 47.4822 18.098C49.4907 21.2224 50.6458 24.8183 50.8325 28.5279C51.0192 32.2374 50.231 35.9312 48.5463 39.2414C46.8616 42.5516 44.3392 45.3628 41.2303 47.3951C38.1214 49.4274 34.5344 50.6099 30.8263 50.8249C27.1183 51.0399 23.4187 50.2799 20.0957 48.6205C17.3097 47.2293 14.87 45.2465 12.9426 42.8191C12.3258 42.0422 12.5561 40.9218 13.3823 40.3727V40.3727C14.2085 39.8236 15.3166 40.0552 15.9467 40.8213C17.5175 42.7314 19.4762 44.2958 21.7006 45.4066C24.4622 46.7857 27.5368 47.4173 30.6184 47.2386C33.7 47.06 36.681 46.0772 39.2647 44.3883C41.8484 42.6993 43.9447 40.363 45.3448 37.612C46.7448 34.8611 47.3999 31.7913 47.2447 28.7085C47.0896 25.6256 46.1296 22.6371 44.4604 20.0406C42.7912 17.4441 40.471 15.3301 37.7308 13.9091C35.5236 12.7645 33.106 12.1017 30.6373 11.9559C29.647 11.8974 28.8076 11.1378 28.7653 10.1467V10.1467Z" fill="white"/>
<path d="M11.8976 37.7073C10.9958 38.1205 9.92199 37.7264 9.58633 36.7929C8.73352 34.4213 8.3091 31.9166 8.33298 29.3964C8.34237 28.4045 9.22641 27.6786 10.214 27.7717V27.7717C11.2016 27.8647 11.9172 28.7419 11.9248 29.7339C11.9394 31.6246 12.2574 33.501 12.8665 35.2909C13.1861 36.23 12.7995 37.294 11.8976 37.7073V37.7073Z" fill="#2793F8" fill-opacity="0.5"/>
<path d="M10.548 25.5757C9.5774 25.3708 8.94928 24.4148 9.23536 23.465C9.57741 22.3293 10.0139 21.2242 10.5402 20.1613C10.9804 19.2724 12.0922 19.0037 12.9409 19.5173V19.5173C13.7896 20.0309 14.052 21.1321 13.6271 22.0285C13.2917 22.7362 13.0037 23.4653 12.765 24.2112C12.4627 25.156 11.5186 25.7806 10.548 25.5757V25.5757Z" fill="#2793F8" fill-opacity="0.5"/>
<path d="M14.0742 17.8458C13.2833 17.247 13.1221 16.1146 13.7854 15.377C13.8379 15.3186 13.8908 15.2604 13.944 15.2026C14.6155 14.4724 15.7581 14.5257 16.429 15.2564L16.568 15.4077C17.1621 16.0548 17.1132 17.0566 16.5221 17.7065V17.7065C15.9311 18.3564 14.9385 18.5 14.238 17.9698L14.0742 17.8458Z" fill="#2793F8" fill-opacity="0.5"/>
</svg>
