<svg width="108" height="117" viewBox="0 0 108 117" fill="none" xmlns="http://www.w3.org/2000/svg">
<g filter="url(#filter0_d_74_1983)">
<circle cx="58.5" cy="58.5" r="33.5" fill="#2793F8"/>
</g>
<path d="M40.2325 62.7931H47.1096V59.8488H33.5838V57.8949H46.6029V55.1021H33.5838V53.1731H46.8812V50.2308H30.3861V62.7931H37.0099V65.3804H29.2939V68.4265H47.9734V65.3804H40.2325V62.7931Z" fill="white"/>
<path d="M63.7314 63.8583H66.9291V50.2308H50.459V53.3766H63.7314V57.1578H50.459V60.2807H63.7314V63.8583Z" fill="white"/>
<path d="M68.073 65.2783H49.3936V68.4262H68.073V65.2783Z" fill="white"/>
<path d="M81.3538 57.2071C81.2292 57.7013 81.0444 58.1643 80.7994 58.5921C80.301 59.4642 79.5992 60.139 78.6939 60.6228C77.7886 61.1045 76.7358 61.3454 75.5336 61.3454C74.3313 61.3454 73.2744 61.1045 72.3608 60.6228C71.4472 60.139 70.7412 59.4642 70.2429 58.5921C69.9979 58.1643 69.8131 57.7013 69.6885 57.2071H73.0959C73.2038 57.4023 73.3347 57.5829 73.4904 57.7407C74.0074 58.2661 74.6885 58.5277 75.5336 58.5277C76.3787 58.5277 77.066 58.2619 77.5892 57.7283C77.7429 57.5725 77.8716 57.396 77.9817 57.2071H81.3538Z" fill="white"/>
<path d="M87.2324 49.6971H84.0098V64.1365H87.2324V49.6971Z" fill="white"/>
<path d="M74.3917 66.0902V62.4108H71.1172V69.1114H87.5624V66.0902H74.3917Z" fill="white"/>
<path d="M76.466 48.7061V48.75C76.4639 48.7354 76.4639 48.7208 76.4639 48.7061H76.466Z" fill="#FF9F06"/>
<path d="M74.1566 48.7859V48.817C73.7496 48.898 73.3592 49.0143 72.9834 49.1679C73.3572 49.006 73.7496 48.8752 74.1566 48.7859Z" fill="#FF8F08"/>
<path d="M78.2995 49.278C77.8531 49.0704 77.3818 48.9188 76.8896 48.8212V48.7859C77.3838 48.8959 77.8573 49.0621 78.2995 49.278Z" fill="#FF8F08"/>
<path d="M69.188 54.5701C69.1776 54.7279 69.1735 54.8857 69.1735 55.0456V55.0809H69.1714C69.1693 54.9085 69.1735 54.7383 69.188 54.5701Z" fill="#FF8F08"/>
<path d="M81.8747 54.9892C81.8747 55.0078 81.8747 55.0265 81.8726 55.0452C81.8726 54.7296 81.8518 54.4202 81.8145 54.1191C81.8539 54.4036 81.8747 54.6943 81.8747 54.9892Z" fill="#FF8F08"/>
<path d="M79.2176 55.5707C79.0806 55.5707 78.9726 55.4607 78.9726 55.3257C78.9726 55.1907 79.0806 55.0807 79.2176 55.0807H81.8734V55.0454C81.8734 54.7298 81.8526 54.4204 81.8152 54.1193C81.5225 51.9827 80.1686 50.1866 78.2999 49.2771C77.8534 49.0694 77.3821 48.9179 76.89 48.8203V50.8012C76.89 50.8842 76.8401 50.9569 76.7716 50.9922C76.7426 51.0047 76.7114 51.013 76.6782 51.013C76.6034 51.013 76.5391 50.9756 76.4996 50.9154C76.4788 50.8822 76.4664 50.8448 76.4664 50.8012V48.7497C76.4643 48.7351 76.4643 48.7206 76.4643 48.7061C76.4311 48.2202 76.0283 47.8361 75.5341 47.8361H75.5133C75.0191 47.8361 74.6163 48.2202 74.5831 48.7061C74.581 48.7206 74.581 48.7331 74.581 48.7476V50.8012C74.581 50.8427 74.5665 50.8822 74.5478 50.9154C74.5083 50.9735 74.444 51.013 74.3692 51.013C74.336 51.013 74.3028 51.0047 74.2758 50.9901C74.2052 50.9569 74.1574 50.8842 74.1574 50.8012V48.8161C73.7504 48.8971 73.3601 49.0134 72.9842 49.167C70.9971 50.035 69.5415 51.8871 69.2342 54.1068C69.2239 54.1837 69.2156 54.2605 69.2072 54.3373C69.201 54.4141 69.1948 54.493 69.1886 54.5699C69.1782 54.7277 69.174 54.8855 69.174 55.0454V55.0807H71.8298C71.9647 55.0807 72.0748 55.1907 72.0748 55.3257C72.0748 55.3942 72.0478 55.4544 72.0042 55.498C71.9585 55.5437 71.8962 55.5707 71.8298 55.5707H68.8418V57.2069H82.2056V55.5707H79.2176ZM77.3323 54.4827H76.2442V55.5707H74.8032V54.4827H73.7131V53.0416H74.8032V51.9536H76.2442V53.0416H77.3323V54.4827Z" fill="#FF8F08"/>
<path d="M74.5822 48.7061C74.5801 48.7208 74.5801 48.7333 74.5801 48.7479V48.7061H74.5822Z" fill="#FF9F06"/>
<defs>
<filter id="filter0_d_74_1983" x="0" y="0" width="117" height="117" filterUnits="userSpaceOnUse" color-interpolation-filters="sRGB">
<feFlood flood-opacity="0" result="BackgroundImageFix"/>
<feColorMatrix in="SourceAlpha" type="matrix" values="0 0 0 0 0 0 0 0 0 0 0 0 0 0 0 0 0 0 127 0" result="hardAlpha"/>
<feOffset/>
<feGaussianBlur stdDeviation="12.5"/>
<feComposite in2="hardAlpha" operator="out"/>
<feColorMatrix type="matrix" values="0 0 0 0 0 0 0 0 0 0 0 0 0 0 0 0 0 0 0.4 0"/>
<feBlend mode="normal" in2="BackgroundImageFix" result="effect1_dropShadow_74_1983"/>
<feBlend mode="normal" in="SourceGraphic" in2="effect1_dropShadow_74_1983" result="shape"/>
</filter>
</defs>
</svg>
