<svg width="83" height="31" viewBox="0 0 83 31" fill="none" xmlns="http://www.w3.org/2000/svg">
<path d="M15.5099 21.2075H25.261V17.0326H6.08266V14.2622H24.5426V10.3023H6.08266V7.56712H24.9371V3.39523H1.54863V21.2075H10.9405V24.8759H0V29.195H26.4858V24.8759H15.5099V21.2075Z" fill="white"/>
<path d="M48.8289 22.7178H53.3629V3.39523H30.0098V7.85565H48.8289V13.217H30.0098V17.645H48.8289V22.7178Z" fill="white"/>
<path d="M54.9858 24.7317H28.5V29.1951H54.9858V24.7317Z" fill="white"/>
<path d="M73.8167 13.2874C73.6401 13.9881 73.378 14.6446 73.0306 15.2511C72.324 16.4877 71.3289 17.4445 70.0452 18.1305C68.7616 18.8136 67.2689 19.1551 65.5642 19.1551C63.8595 19.1551 62.361 18.8136 61.0655 18.1305C59.7701 17.4445 58.7691 16.4877 58.0625 15.2511C57.7151 14.6446 57.453 13.9881 57.2764 13.2874H62.1078C62.2608 13.5641 62.4463 13.8203 62.6671 14.044C63.4002 14.7889 64.3659 15.1599 65.5642 15.1599C66.7625 15.1599 67.737 14.783 68.4789 14.0264C68.6968 13.8055 68.8793 13.5553 69.0354 13.2874H73.8167Z" fill="white"/>
<path d="M82.1514 2.63919H77.582V23.1129H82.1514V2.63919Z" fill="white"/>
<path d="M63.9447 25.8834V20.6663H59.3018V30.1672H82.6196V25.8834H63.9447Z" fill="white"/>
<path d="M66.8857 1.23375V1.29534C66.8828 1.27481 66.8828 1.25428 66.8828 1.23375H66.8857Z" fill="#FF9F06"/>
<path d="M63.6117 1.34729V1.39145C63.0346 1.50628 62.4811 1.67115 61.9482 1.88902C62.4782 1.65937 63.0346 1.47389 63.6117 1.34729Z" fill="#FF8F08"/>
<path d="M69.4854 2.04506C68.8524 1.75064 68.1841 1.53572 67.4863 1.39734V1.34729C68.187 1.50333 68.8583 1.73886 69.4854 2.04506Z" fill="#FF8F08"/>
<path d="M56.5663 9.54874C56.5515 9.77249 56.5456 9.99625 56.5456 10.223V10.273H56.5427C56.5398 10.0286 56.5456 9.78721 56.5663 9.54874Z" fill="#FF8F08"/>
<path d="M74.5551 10.1426C74.5551 10.1691 74.5551 10.1956 74.5522 10.2221C74.5522 9.7746 74.5227 9.33592 74.4697 8.90901C74.5257 9.31236 74.5551 9.72455 74.5551 10.1426Z" fill="#FF8F08"/>
<path d="M70.7862 10.967C70.5919 10.967 70.4388 10.811 70.4388 10.6196C70.4388 10.4283 70.5919 10.2722 70.7862 10.2722H74.5518V10.2222C74.5518 9.77465 74.5224 9.33596 74.4694 8.90906C74.0543 5.87951 72.1347 3.3328 69.4849 2.04325C68.8519 1.74884 68.1836 1.53391 67.4858 1.39554V4.20428C67.4858 4.32204 67.4152 4.42509 67.318 4.47514C67.2768 4.4928 67.2326 4.50458 67.1855 4.50458C67.0795 4.50458 66.9883 4.45159 66.9323 4.3662C66.9029 4.3191 66.8852 4.2661 66.8852 4.20428V1.29543C66.8823 1.27483 66.8823 1.25422 66.8823 1.23361C66.8352 0.544672 66.264 0 65.5633 0H65.5338C64.8331 0 64.262 0.544672 64.2148 1.23361C64.2119 1.25422 64.2119 1.27188 64.2119 1.29249V4.20428C64.2119 4.26316 64.1913 4.3191 64.1648 4.3662C64.1089 4.44864 64.0176 4.50458 63.9116 4.50458C63.8645 4.50458 63.8174 4.4928 63.7791 4.47219C63.679 4.42509 63.6113 4.32204 63.6113 4.20428V1.38965C63.0342 1.50447 62.4807 1.66934 61.9478 1.88721C59.1303 3.11788 57.0664 5.74408 56.6307 8.89139C56.6159 9.00033 56.6042 9.10926 56.5924 9.2182C56.5836 9.32713 56.5747 9.43901 56.5659 9.54794C56.5512 9.7717 56.5453 9.99546 56.5453 10.2222V10.2722H60.3109C60.5023 10.2722 60.6583 10.4283 60.6583 10.6196C60.6583 10.7168 60.62 10.8022 60.5582 10.864C60.4934 10.9288 60.4051 10.967 60.3109 10.967H56.0742V13.287H75.0229V10.967H70.7862ZM68.1129 9.42429H66.5702V10.967H64.5269V9.42429H62.9812V7.38103H64.5269V5.83829H66.5702V7.38103H68.1129V9.42429Z" fill="#FF8F08"/>
<path d="M64.2148 1.23375C64.2119 1.25428 64.2119 1.27188 64.2119 1.29241V1.23375H64.2148Z" fill="#FF9F06"/>
</svg>
