<svg width="41" height="47" viewBox="0 0 41 47" fill="none" xmlns="http://www.w3.org/2000/svg">
<path d="M34.167 13.7083H6.83366C4.94669 13.7083 3.41699 15.4618 3.41699 17.6249V37.2083C3.41699 39.3714 4.94669 41.1249 6.83366 41.1249H34.167C36.054 41.1249 37.5837 39.3714 37.5837 37.2083V17.6249C37.5837 15.4618 36.054 13.7083 34.167 13.7083Z" stroke="white" stroke-width="2" stroke-linecap="round" stroke-linejoin="round"/>
<path d="M27.3337 41.125V9.79167C27.3337 8.7529 26.9737 7.75668 26.3329 7.02216C25.6922 6.28765 24.8231 5.875 23.917 5.875H17.0837C16.1775 5.875 15.3085 6.28765 14.6677 7.02216C14.027 7.75668 13.667 8.7529 13.667 9.79167V41.125" stroke="white" stroke-width="2" stroke-linecap="round" stroke-linejoin="round"/>
</svg>
