<svg width="51" height="44" viewBox="0 0 51 44" fill="none" xmlns="http://www.w3.org/2000/svg">
<path d="M33.615 32.5232V5.49094C33.615 3.28683 31.9147 1.5 29.8173 1.5H5.29774C3.20029 1.5 1.5 3.28683 1.5 5.49094V31.9333C1.5 34.1375 3.20029 35.9243 5.29774 35.9243H8.28697" stroke="white" stroke-width="3" stroke-linecap="round" stroke-linejoin="round"/>
<path d="M49.3352 20.3867H33.6221" stroke="white" stroke-width="3" stroke-linecap="round" stroke-linejoin="round"/>
<path d="M43.0301 35.9242H45.6198C47.7279 35.9242 49.4327 34.1199 49.4171 31.9041L49.3294 19.2118L44.0411 7.8342C43.4042 6.46383 42.0799 5.59473 40.6288 5.59473H33.5654" stroke="white" stroke-width="3" stroke-linecap="round" stroke-linejoin="round"/>
<path d="M8.33496 36.0455C8.33496 37.5231 8.89352 38.9402 9.88777 39.985C10.882 41.0299 12.2305 41.6168 13.6366 41.6168C15.0427 41.6168 16.3912 41.0299 17.3854 39.985C18.3797 38.9402 18.9382 37.5231 18.9382 36.0455C18.9382 34.5679 18.3797 33.1508 17.3854 32.1059C16.3912 31.0611 15.0427 30.4741 13.6366 30.4741C12.2305 30.4741 10.882 31.0611 9.88777 32.1059C8.89352 33.1508 8.33496 34.5679 8.33496 36.0455Z" stroke="white" stroke-width="3" stroke-linecap="round" stroke-linejoin="round"/>
<path d="M32.4014 36.0455C32.4014 37.5231 32.9599 38.9402 33.9542 39.985C34.9484 41.0299 36.2969 41.6168 37.703 41.6168C39.1091 41.6168 40.4576 41.0299 41.4518 39.985C42.4461 38.9402 43.0046 37.5231 43.0046 36.0455C43.0046 34.5679 42.4461 33.1508 41.4518 32.1059C40.4576 31.0611 39.1091 30.4741 37.703 30.4741C36.2969 30.4741 34.9484 31.0611 33.9542 32.1059C32.9599 33.1508 32.4014 34.5679 32.4014 36.0455Z" stroke="white" stroke-width="3" stroke-linecap="round" stroke-linejoin="round"/>
<path d="M11.8643 17.4639H23.2498" stroke="white" stroke-width="3" stroke-linecap="round" stroke-linejoin="round"/>
<path d="M17.5576 11.4805V23.4452" stroke="white" stroke-width="3" stroke-linecap="round" stroke-linejoin="round"/>
<path d="M32.4011 35.9238H18.9385" stroke="white" stroke-width="3" stroke-linecap="round" stroke-linejoin="round"/>
</svg>
