<svg width="34" height="38" viewBox="0 0 34 38" fill="none" xmlns="http://www.w3.org/2000/svg">
<path fill-rule="evenodd" clip-rule="evenodd" d="M3.49666 5.94565C2.39494 6.02494 1.5002 6.4117 1.5002 7.51627C1.5002 9.04861 1.5002 11.8553 1.5002 16.8969C1.5002 30.6736 12.8402 35.9106 16.544 35.9106C20.2479 35.9106 31.5879 30.6736 31.5879 16.8969C31.5879 11.8553 31.5879 9.04861 31.5879 7.51627C31.5879 6.4117 30.6931 6.02494 29.5914 5.94565C27.7862 5.81572 25.0728 5.49006 22.8123 4.67377C20.8677 3.97155 19.2583 2.90625 18.1573 2.04107C17.2392 1.31967 15.8489 1.31967 14.9308 2.04107C13.8298 2.90625 12.2204 3.97155 10.2758 4.67377C8.01529 5.49006 5.30191 5.81572 3.49666 5.94565Z" stroke="white" stroke-width="3" stroke-linecap="round" stroke-linejoin="round"/>
<path d="M22.6729 13.9717L14.8723 22.8866L11.5293 18.4291" stroke="white" stroke-width="3" stroke-linecap="round" stroke-linejoin="round"/>
</svg>
