<svg width="31" height="31" viewBox="0 0 31 31" fill="none" xmlns="http://www.w3.org/2000/svg">
<path d="M15.4167 0C6.90667 0 0 6.90667 0 15.4167C0 23.9267 6.90667 30.8333 15.4167 30.8333C23.9267 30.8333 30.8333 23.9267 30.8333 15.4167C30.8333 6.90667 23.9267 0 15.4167 0ZM13.875 27.6421C7.78542 26.8867 3.08333 21.7067 3.08333 15.4167C3.08333 14.4608 3.20667 13.5513 3.40708 12.6571L10.7917 20.0417V21.5833C10.7917 23.2792 12.1792 24.6667 13.875 24.6667V27.6421ZM24.5125 23.7263C24.1117 22.4775 22.9708 21.5833 21.5833 21.5833H20.0417V16.9583C20.0417 16.1104 19.3479 15.4167 18.5 15.4167H9.25V12.3333H12.3333C13.1813 12.3333 13.875 11.6396 13.875 10.7917V7.70833H16.9583C18.6542 7.70833 20.0417 6.32083 20.0417 4.625V3.99292C24.5588 5.8275 27.75 10.2521 27.75 15.4167C27.75 18.6233 26.5167 21.5371 24.5125 23.7263Z" fill="black" fill-opacity="0.6"/>
</svg>
