<svg width="612" height="612" viewBox="0 0 612 612" fill="none" xmlns="http://www.w3.org/2000/svg">
<rect width="611.536" height="611.536" rx="200" fill="#FF8F08"/>
<path d="M463.75 373.813C460.388 383.845 456.107 393.445 450.849 402.643C436.367 427.908 416.427 447.798 390.998 462.256C365.598 476.771 337.181 483.986 305.748 483.986C274.314 483.986 245.983 476.771 220.727 462.256C195.471 447.798 175.588 427.822 161.106 402.413C155.906 393.272 151.653 383.73 148.32 373.813H214.981C215.124 374.101 215.268 374.388 215.412 374.676C224.491 391.462 236.904 404.568 252.621 413.967C268.309 423.366 286.037 428.052 305.748 428.052C325.458 428.052 343.244 423.366 359.133 413.967C374.994 404.568 387.464 391.462 396.544 374.676C396.716 374.388 396.831 374.101 396.975 373.813H463.75Z" fill="#5B5B5B"/>
<path d="M270.119 152.807V153.612C259.459 155.71 249.202 158.786 239.375 162.839C249.173 158.556 259.459 155.136 270.119 152.807Z" fill="#FF8F08"/>
<path d="M378.844 165.713C367.092 160.281 354.766 156.257 341.836 153.698V152.807C354.794 155.653 367.207 160.051 378.844 165.713Z" fill="#FF8F08"/>
<path d="M139.383 317.103C139.383 317.42 139.412 317.707 139.412 318.023H139.354C139.239 309.343 139.814 300.806 140.963 292.471C139.929 300.49 139.383 308.682 139.383 317.103Z" fill="#FF8F08"/>
<path d="M472.57 318.023V317.103C472.57 308.797 472.053 300.691 471.047 292.787C472.081 300.26 472.627 307.877 472.627 315.609C472.627 316.414 472.598 317.19 472.57 318.023Z" fill="#FF8F08"/>
<path d="M402.893 330.9C399.33 330.9 396.457 327.997 396.457 324.461C396.457 320.926 399.33 318.023 402.893 318.023H472.57V317.103C472.57 308.796 472.053 300.691 471.047 292.787C463.376 236.737 427.833 189.599 378.844 165.713C367.092 160.281 354.765 156.257 341.836 153.699V205.724C341.836 207.908 340.543 209.776 338.732 210.696C337.985 211.07 337.152 211.271 336.29 211.271C334.308 211.271 332.612 210.265 331.607 208.713C331.061 207.851 330.745 206.845 330.745 205.724V152.377C330.745 152.204 330.716 152.032 330.716 151.859C330.687 151.486 330.687 151.112 330.659 150.738C329.797 137.976 319.223 127.887 306.264 127.887H305.69C292.731 127.887 282.157 137.976 281.295 150.738C281.267 151.083 281.267 151.428 281.267 151.802C281.267 151.974 281.267 152.175 281.267 152.377V205.724C281.267 206.816 280.922 207.822 280.405 208.684C279.399 210.236 277.675 211.271 275.721 211.271C274.831 211.271 273.997 211.041 273.25 210.668C271.411 209.776 270.147 207.908 270.147 205.724V153.612C259.487 155.711 249.23 158.786 239.403 162.839C187.253 185.604 149.067 234.208 140.964 292.47C139.93 300.49 139.384 308.681 139.384 317.103C139.384 317.419 139.413 317.707 139.413 318.023H209.09C212.624 318.023 215.497 320.897 215.497 324.461C215.497 326.243 214.779 327.853 213.63 329.003C212.451 330.181 210.842 330.9 209.09 330.9H130.678V373.813H481.276V330.9H402.893ZM353.415 302.329H324.883V330.9H287.071V302.329H258.51V264.503H287.071V235.961H324.883V264.503H353.415V302.329Z" fill="white"/>
</svg>
