<svg width="51" height="52" viewBox="0 0 51 52" fill="none" xmlns="http://www.w3.org/2000/svg">
<rect width="51" height="52" rx="15" fill="#8EA8BA"/>
<path d="M36 21C35.7655 21.6374 35.4669 22.2473 35.1002 22.8317C34.0902 24.437 32.6994 25.7008 30.9259 26.6194C29.1543 27.5416 27.1723 28 24.98 28C22.7876 28 20.8116 27.5416 19.0501 26.6194C17.2886 25.7008 15.9018 24.4315 14.8918 22.8171C14.5291 22.2364 14.2325 21.6301 14 21H18.6493C18.6593 21.0183 18.6693 21.0365 18.6794 21.0548C19.3126 22.1213 20.1784 22.9541 21.2745 23.5513C22.3687 24.1484 23.6052 24.4461 24.98 24.4461C26.3547 24.4461 27.5952 24.1484 28.7034 23.5513C29.8096 22.9541 30.6794 22.1213 31.3126 21.0548C31.3246 21.0365 31.3327 21.0183 31.3427 21H36Z" fill="#5B5B5B"/>
<path d="M31.6324 17.859C31.3885 17.859 31.1918 17.6466 31.1918 17.3878C31.1918 17.129 31.3885 16.9166 31.6324 16.9166H36.4021V16.8492C36.4021 16.2412 36.3667 15.648 36.2978 15.0694C35.7727 10.967 33.3396 7.51683 29.9861 5.76858C29.1816 5.37097 28.3378 5.07644 27.4527 4.8892V8.69705C27.4527 8.85694 27.3642 8.99369 27.2403 9.06101C27.1891 9.08836 27.1321 9.10309 27.0731 9.10309C26.9374 9.10309 26.8213 9.02945 26.7525 8.91585C26.7151 8.85273 26.6935 8.7791 26.6935 8.69705V4.79243C26.6935 4.7798 26.6915 4.76718 26.6915 4.75456C26.6896 4.72721 26.6896 4.69986 26.6876 4.67251C26.6286 3.73843 25.9048 3 25.0177 3H24.9784C24.0913 3 23.3675 3.73843 23.3085 4.67251C23.3065 4.69776 23.3065 4.723 23.3065 4.75035C23.3065 4.76297 23.3065 4.7777 23.3065 4.79243V8.69705C23.3065 8.777 23.2829 8.85063 23.2475 8.91375C23.1787 9.02735 23.0606 9.10309 22.9269 9.10309C22.8659 9.10309 22.8089 9.08626 22.7577 9.05891C22.6319 8.99369 22.5453 8.85694 22.5453 8.69705V4.88289C21.8156 5.03647 21.1134 5.26157 20.4407 5.5582C16.8728 7.2244 14.2588 10.7819 13.7041 15.0463C13.6333 15.6332 13.596 16.2328 13.596 16.8492C13.596 16.8724 13.5979 16.8934 13.5979 16.9166H18.3676C18.6096 16.9166 18.8063 17.1269 18.8063 17.3878C18.8063 17.5182 18.7571 17.636 18.6784 17.7202C18.5978 17.8065 18.4876 17.859 18.3676 17.859H13V21H37V17.859H31.6343H31.6324ZM28.2454 15.7679H26.2922V17.859H23.7038V15.7679H21.7487V12.9993H23.7038V10.9102H26.2922V12.9993H28.2454V15.7679Z" fill="#FF8F08"/>
<ellipse cx="25.5" cy="39.5" rx="13.5" ry="10.5" fill="#5B5B5B"/>
</svg>
