<svg width="1758" height="383" viewBox="0 0 1758 383" fill="none" xmlns="http://www.w3.org/2000/svg">
<path d="M235.726 58.1809C262.5 72.2799 283.313 92.2485 298.258 118.026C313.173 143.804 320.645 173.575 320.645 207.31C320.645 241.045 313.173 270.816 298.258 296.594C283.344 322.371 262.5 342.34 235.726 356.439C208.953 370.538 178.065 377.618 143.033 377.618H0V37.0021H143.033C178.065 37.0021 208.953 44.0516 235.726 58.1809ZM200.21 307.062C217.545 297.653 230.947 284.37 240.355 267.155C249.764 249.97 254.453 230.001 254.453 207.31C254.453 184.618 249.764 164.166 240.355 146.981C230.947 129.795 217.575 116.574 200.21 107.316C182.845 98.0575 162.667 93.4587 139.645 93.4587H64.7098V321.191H139.645C162.667 321.191 182.876 316.502 200.21 307.092V307.062Z" fill="#5B5B5B"/>
<path d="M804.985 360.342C778.544 345.244 757.791 324.338 742.695 297.562C727.599 270.786 720.066 240.712 720.066 207.31C720.066 173.908 727.599 143.804 742.695 117.058C757.791 90.2818 778.605 69.3753 805.227 54.2778C831.819 39.1804 861.496 31.6468 894.26 31.6468C921.184 31.6468 945.749 36.6086 967.985 46.5022C990.19 56.3957 1008.95 70.767 1024.19 89.5557L982.354 130.431C959.332 103.503 931.107 90.0397 897.708 90.0397C876.29 90.0397 857.079 95.0622 840.047 105.137C823.015 115.212 809.704 129.069 800.144 146.738C790.585 164.438 785.775 184.618 785.775 207.31C785.775 230.001 790.554 249.728 800.144 267.397C809.704 285.066 823.015 298.954 840.047 308.998C857.079 319.043 876.29 324.096 897.708 324.096C931.44 324.096 959.665 310.632 982.354 283.705L1024.19 324.58C1009.28 343.399 990.613 357.831 968.227 367.875C945.84 377.92 921.033 382.973 893.776 382.973C861.012 382.973 831.425 375.439 804.985 360.342Z" fill="#5B5B5B"/>
<path d="M1129.75 291.027V377.648H1065.04V37.0021H1129.75V207.794L1284.46 37.0021H1356.94L1221.2 189.308L1365.23 377.618H1289.33L1178.87 236.99L1129.75 290.996V291.027Z" fill="#5B5B5B"/>
<path d="M1388.58 64.9887C1381.11 57.6971 1377.39 48.681 1377.39 37.9706C1377.39 27.2601 1381.11 18.2743 1388.58 10.9525C1396.06 3.66091 1405.62 0 1417.29 0C1428.97 0 1438.53 3.47938 1446 10.4684C1453.45 17.4574 1457.2 26.1104 1457.2 36.4881C1457.2 47.8338 1453.54 57.2433 1446.25 64.7164C1438.95 72.1895 1429.3 75.9109 1417.29 75.9109C1405.28 75.9109 1396.06 72.25 1388.58 64.9584V64.9887ZM1448.94 117.3V377.618H1385.68V117.3H1448.94Z" fill="#5B5B5B"/>
<path d="M1729.89 142.594C1748.53 161.745 1757.88 190.125 1757.88 227.763V377.648H1695.1V237.989C1695.1 215.6 1690.32 198.808 1680.73 187.614C1671.17 176.419 1657.29 170.822 1639.14 170.822C1619.02 170.822 1603.04 177.388 1591.22 190.518C1579.36 203.649 1573.46 222.559 1573.46 247.217V377.618H1510.68V117.3H1570.52V153.304C1579.93 140.657 1592 130.915 1606.77 124.108C1621.53 117.3 1637.83 113.881 1655.65 113.881C1686.45 113.881 1711.2 123.442 1729.86 142.594H1729.89Z" fill="#5B5B5B"/>
<path d="M546.448 32.1918V33.9164C546.448 33.7349 546.418 33.5533 546.418 33.3718C546.388 32.9785 546.388 32.5851 546.357 32.1918H546.448Z" fill="#FF9F06"/>
<path d="M686.487 267.004C682.948 277.563 678.44 287.669 672.904 297.35C657.657 323.945 636.662 344.882 609.888 360.1C583.145 375.379 553.226 382.973 520.13 382.973C487.034 382.973 457.205 375.379 430.613 360.1C404.021 344.882 383.086 323.854 367.839 297.108C362.364 287.487 357.886 277.442 354.377 267.004H424.562C424.714 267.307 424.865 267.609 425.016 267.912C434.576 285.581 447.645 299.377 464.193 309.271C480.711 319.164 499.377 324.096 520.13 324.096C540.883 324.096 559.609 319.164 576.339 309.271C593.038 299.377 606.167 285.581 615.727 267.912C615.909 267.609 616.03 267.307 616.181 267.004H686.487Z" fill="#5B5B5B"/>
<path d="M482.614 34.3702V35.2173C471.391 37.426 460.59 40.6633 450.244 44.9293C460.56 40.4213 471.391 36.8209 482.614 34.3702Z" fill="#FF8F08"/>
<path d="M597.09 47.9549C584.717 42.2366 571.739 38.0008 558.125 35.3081V34.3702C571.769 37.3655 584.838 41.9945 597.09 47.9549Z" fill="#FF8F08"/>
<path d="M344.967 207.31C344.967 207.643 344.998 207.945 344.998 208.278H344.937C344.816 199.141 345.421 190.155 346.631 181.381C345.542 189.822 344.967 198.445 344.967 207.31Z" fill="#FF8F08"/>
<path d="M695.773 208.278V207.31C695.773 198.566 695.229 190.034 694.17 181.714C695.259 189.58 695.834 197.598 695.834 205.737C695.834 206.584 695.804 207.401 695.773 208.278Z" fill="#FF8F08"/>
<path d="M622.411 221.833C618.66 221.833 615.634 218.777 615.634 215.056C615.634 211.334 618.66 208.278 622.411 208.278H695.773V207.31C695.773 198.566 695.228 190.034 694.169 181.714C686.092 122.716 648.67 73.0971 597.09 47.9548C584.716 42.2365 571.738 38.0008 558.125 35.308V90.0704C558.125 92.3698 556.763 94.3364 554.857 95.3046C554.071 95.6979 553.193 95.9097 552.286 95.9097C550.198 95.9097 548.413 94.8507 547.355 93.2169C546.78 92.3093 546.447 91.2503 546.447 90.0704V33.9163C546.447 33.7348 546.417 33.5532 546.417 33.3717C546.387 32.9784 546.387 32.5851 546.356 32.1917C545.449 18.7583 534.316 8.13866 520.672 8.13866H520.067C506.423 8.13866 495.29 18.7583 494.383 32.1917C494.353 32.5548 494.353 32.9179 494.353 33.3112C494.353 33.4927 494.353 33.7045 494.353 33.9163V90.0704C494.353 91.2201 493.989 92.279 493.445 93.1867C492.386 94.8205 490.571 95.9097 488.514 95.9097C487.576 95.9097 486.699 95.6676 485.912 95.2743C483.976 94.3364 482.645 92.3698 482.645 90.0704V35.2173C471.421 37.4259 460.621 40.6633 450.275 44.9293C395.397 68.8916 355.192 120.054 346.66 181.381C345.571 189.823 344.997 198.445 344.997 207.31C344.997 207.643 345.027 207.946 345.027 208.278H418.389C422.11 208.278 425.135 211.304 425.135 215.056C425.135 216.931 424.379 218.626 423.169 219.836C421.928 221.076 420.234 221.833 418.389 221.833H335.83V267.004H704.97V221.833H622.441H622.411ZM570.316 191.759H540.276V221.833H500.463V191.759H470.393V151.943H500.463V121.899H540.276V151.943H570.316V191.759Z" fill="#FF8F08"/>
<path d="M494.384 32.1918C494.353 32.5549 494.354 32.918 494.354 33.3113C494.354 33.4928 494.354 33.7046 494.354 33.9164V32.1918H494.414H494.384Z" fill="#FF9F06"/>
</svg>
