<svg width="28" height="27" viewBox="0 0 28 27" fill="none" xmlns="http://www.w3.org/2000/svg">
<path d="M12.2697 3.52064L14.1002 4.01419C13.339 5.99935 12.3603 7.72129 11.1642 9.18C9.96802 10.6277 8.53625 11.8506 6.86887 12.8487C5.20149 13.8468 3.27434 14.6639 1.08742 15.3C1.02701 15.1684 0.930348 15.0094 0.797441 14.8229C0.676617 14.6365 0.54371 14.4445 0.398721 14.2471C0.253731 14.0606 0.120824 13.9071 0 13.7865C2.12651 13.249 3.98721 12.5306 5.58209 11.6313C7.17697 10.7319 8.52416 9.61871 9.62367 8.29161C10.7353 6.95355 11.6173 5.36323 12.2697 3.52064ZM4.56716 3.61936C5.20753 5.33032 6.08351 6.86032 7.1951 8.20935C8.30668 9.55839 9.67804 10.7045 11.3092 11.6477C12.9403 12.58 14.8372 13.2765 17 13.7371C16.8671 13.8577 16.7161 14.0113 16.5469 14.1977C16.3898 14.3842 16.2388 14.5706 16.0938 14.7571C15.9609 14.9545 15.8461 15.13 15.7495 15.2835C13.5021 14.7461 11.5569 13.9674 9.91365 12.9474C8.27043 11.9165 6.87491 10.6606 5.72708 9.18C4.57925 7.69935 3.62473 6.00484 2.86354 4.09645L4.56716 3.61936ZM0.271855 2.71452H16.7463V4.22806H0.271855V2.71452ZM7.57569 0H9.33369V3.63581H7.57569V0Z" fill="#FF8F08"/>
<path d="M16.0454 26.2998H14L19.7664 10.9998H21.8336L27.6 26.2998H25.5328L23.9661 21.9888H17.6339L16.0454 26.2998ZM18.2214 20.3193H23.3568L20.8544 13.4723H20.7238L18.2214 20.3193Z" fill="#FF8F08"/>
</svg>
