<svg width="36" height="36" viewBox="0 0 36 36" fill="none" xmlns="http://www.w3.org/2000/svg">
<path d="M34 25C33.659 26.0016 33.2246 26.9601 32.6912 27.8784C31.2221 30.401 29.1991 32.3869 26.6194 33.8304C24.0426 35.2797 21.1598 36 17.9708 36C14.7819 36 11.9078 35.2797 9.3456 33.8304C6.78338 32.3869 4.76626 30.3924 3.29714 27.8555C2.76954 26.9429 2.33813 25.9901 2 25H8.76262C8.77719 25.0287 8.79177 25.0574 8.80634 25.0861C9.72746 26.7621 10.9867 28.0707 12.5812 29.0091C14.1727 29.9476 15.9712 30.4153 17.9708 30.4153C19.9705 30.4153 21.7748 29.9476 23.3868 29.0091C24.9958 28.0707 26.2609 26.7621 27.182 25.0861C27.1995 25.0574 27.2111 25.0287 27.2257 25H34Z" fill="#5B5B5B"/>
<path d="M27.9485 20.6376C27.5827 20.6376 27.2877 20.3424 27.2877 19.9831C27.2877 19.6237 27.5827 19.3285 27.9485 19.3285H35.1031V19.235C35.1031 18.3906 35.05 17.5666 34.9467 16.7631C34.159 11.0653 30.5094 6.27338 25.4791 3.84525C24.2724 3.29301 23.0067 2.88394 21.6791 2.62389V7.91258C21.6791 8.13464 21.5463 8.32457 21.3604 8.41807C21.2837 8.45605 21.1982 8.47651 21.1097 8.47651C20.9061 8.47651 20.732 8.37424 20.6287 8.21646C20.5727 8.1288 20.5402 8.02653 20.5402 7.91258V2.48948C20.5402 2.47195 20.5373 2.45442 20.5373 2.43689C20.5343 2.3989 20.5343 2.36092 20.5314 2.32293C20.4429 1.0256 19.3572 0 18.0266 0H17.9675C16.6369 0 15.5512 1.0256 15.4627 2.32293C15.4598 2.35799 15.4598 2.39306 15.4598 2.43104C15.4598 2.44857 15.4598 2.46903 15.4598 2.48948V7.91258C15.4598 8.02361 15.4244 8.12588 15.3713 8.21353C15.268 8.37132 15.091 8.47651 14.8903 8.47651C14.7989 8.47651 14.7133 8.45313 14.6366 8.41515C14.4478 8.32457 14.318 8.13464 14.318 7.91258V2.61512C13.2234 2.82842 12.1701 3.14107 11.1611 3.55306C5.80921 5.86723 1.88821 10.8082 1.05622 16.7309C0.950006 17.5462 0.893951 18.3789 0.893951 19.235C0.893951 19.2672 0.896902 19.2964 0.896902 19.3285H8.05147C8.41436 19.3285 8.70939 19.6207 8.70939 19.9831C8.70939 20.1642 8.63563 20.3278 8.51762 20.4447C8.39666 20.5645 8.23144 20.6376 8.05147 20.6376H0V25H36V20.6376H27.9515H27.9485ZM22.8681 17.7332H19.9384V20.6376H16.0557V17.7332H13.1231V13.8879H16.0557V10.9864H19.9384V13.8879H22.8681V17.7332Z" fill="#FF8F08"/>
</svg>
