<svg width="56" height="56" viewBox="0 0 56 56" fill="none" xmlns="http://www.w3.org/2000/svg">
<rect width="56" height="56" rx="18" fill="#ECECF0"/>
<g clip-path="url(#clip0_74_2317)">
<path fill-rule="evenodd" clip-rule="evenodd" d="M17.9962 18.9072C16.895 18.9941 16 19.5185 16 20.6231C16 21.8312 16 23.8068 16 27C16 37.1439 25.0455 41 28 41C30.9545 41 40 37.1439 40 27C40 23.8068 40 21.8312 40 20.6231C40 19.5185 39.105 18.9941 38.0038 18.9072C36.5826 18.795 34.6416 18.5472 33 18C31.6007 17.5336 30.419 16.8496 29.5563 16.2525C28.6481 15.6238 27.3519 15.6238 26.4437 16.2525C25.581 16.8496 24.3993 17.5336 23 18C21.3584 18.5472 19.4174 18.795 17.9962 18.9072Z" stroke="#464646" stroke-width="2" stroke-linecap="round" stroke-linejoin="round"/>
<path d="M33 24L26 32L23 28" stroke="#464646" stroke-width="2" stroke-linecap="round" stroke-linejoin="round"/>
</g>
<defs>
<clipPath id="clip0_74_2317">
<rect width="32" height="32" fill="white" transform="translate(12 12)"/>
</clipPath>
</defs>
</svg>
